<?xml version="1.0" standalone="no"?>
<!DOCTYPE svg PUBLIC "-//W3C//DTD SVG 20010904//EN"
 "http://www.w3.org/TR/2001/REC-SVG-20010904/DTD/svg10.dtd">
<svg version="1.0" xmlns="http://www.w3.org/2000/svg"
 width="421.000000pt" height="421.000000pt" viewBox="0 0 421.000000 421.000000"
 preserveAspectRatio="xMidYMid meet">
<metadata>
Created by potrace 1.14, written by Peter Selinger 2001-2017
</metadata>
<g transform="translate(0.000000,421.000000) scale(0.100000,-0.100000)"
fill="#000000" stroke="none">
<path d="M1980 3628 c-165 -16 -329 -76 -420 -152 -55 -47 -125 -137 -142
-182 -6 -19 -15 -34 -19 -34 -4 0 -10 -13 -14 -30 -8 -37 -19 -44 -72 -47 -50
-2 -92 -22 -139 -69 -64 -62 -120 -160 -140 -246 -1 -5 -2 -9 -4 -10 -1 -2 -3
-10 -5 -18 -1 -8 -12 -51 -23 -95 -12 -44 -23 -93 -26 -110 -3 -16 -8 -41 -11
-55 -3 -14 -7 -36 -10 -50 -6 -41 -16 -101 -21 -123 -2 -12 -6 -39 -9 -62 -3
-22 -8 -51 -10 -65 -3 -14 -8 -36 -10 -50 -3 -14 -8 -45 -11 -70 -3 -25 -8
-54 -10 -65 -4 -21 -15 -147 -18 -200 -1 -18 -12 -41 -29 -57 -15 -15 -27 -37
-28 -50 -1 -34 3 -186 6 -238 2 -25 6 -106 9 -180 4 -74 8 -169 11 -210 6 -85
12 -200 20 -380 3 -69 8 -154 10 -190 2 -36 5 -96 6 -135 3 -97 13 -127 50
-149 30 -18 81 -18 1180 -19 848 0 1156 3 1177 12 53 22 54 26 68 296 3 72 8
155 9 185 2 30 6 116 10 190 3 74 8 169 10 210 3 41 7 129 10 195 4 66 9 145
11 175 3 30 7 134 9 230 4 157 1 186 -20 283 -64 283 -290 841 -418 1031 -26
38 -47 70 -47 72 0 17 -202 224 -217 224 -7 0 -13 4 -13 9 0 13 -127 93 -220
138 -116 56 -199 79 -320 89 -36 3 -72 6 -80 7 -8 2 -49 -1 -90 -5z"/>
</g>
</svg>
